PathFileType	4	(X/Y/Z)	T1_P2_Vision_Movement_0_0-735.trc
DataRate	CameraRate	NumFrames	NumMarkers	Units	OrigDataRate	OrigDataStartFrame	OrigNumFrames
60	60	4	27	m	60	551	735
Frame#	Time	RHip			RKnee			RAnkle			RBigToe			RSmallToe			RHeel			LHip			LKnee			LAnkle			LBigToe			LSmallToe			LHeel			Neck			Head			Nose			RShoulder			RElbow			RWrist			RThumb			RIndex			RPinky			LShoulder			LElbow			LWrist			LThumb			LIndex			LPinky		
		X1	Y1	Z1	X2	Y2	Z2	X3	Y3	Z3	X4	Y4	Z4	X5	Y5	Z5	X6	Y6	Z6	X7	Y7	Z7	X8	Y8	Z8	X9	Y9	Z9	X10	Y10	Z10	X11	Y11	Z11	X12	Y12	Z12	X13	Y13	Z13	X14	Y14	Z14	X15	Y15	Z15	X16	Y16	Z16	X17	Y17	Z17	X18	Y18	Z18	X19	Y19	Z19	X20	Y20	Z20	X21	Y21	Z21	X22	Y22	Z22	X23	Y23	Z23	X24	Y24	Z24	X25	Y25	Z25	X26	Y26	Z26	X27	Y27	Z27
552	9.2	449.2344104090901	3765.7361422772706	720.4429410165128	833.31472389384	3754.5342753978985	694.6929284400389	1212.397288586931	3754.4477161466702	714.2730074587464	1310.9411428570163	3698.186796396228	691.9799746941273	1266.3520134256341	3676.2589897336366	592.7144349406994	1265.4495044552098	3800.1758733521774	756.8429802995229	453.00595478112035	3640.2328177445725	866.43792544249	840.8079471128883	3646.049951270744	876.7956036927429	1239.8315430325265	3721.464402398467	882.6772395163784	1290.3501241188371	3538.401250555254	789.4767729115356	1257.4579081691663	3526.9259498676865	832.0399549616184	1259.5977766383778	3732.6811587283973	869.3158406799396	-131.29988159283099	3711.60188510653	851.2710508077196	-402.9629731147263	3640.474556605831	815.3551449866987	-250.15442365546932	3472.617726549156	730.2840885638585	-60.259345423859315	3733.1344062480525	670.241149054096	119.64033500178421	3584.3059934262315	536.6967945904325	2.696435052248015	3446.1724125575124	717.1505161158378	-72.04532558069697	3384.032028113054	824.1560756239926	-62.304459315567456	3387.1437144338065	829.5683534418378	-6.3913458516433	3389.265226425009	824.7749246065069	-35.84226534462656	3674.5303407181605	1001.4384105573716	228.43955999473962	3552.679717422348	961.6645159990965	481.2312702839022	3607.70231890756	1032.7621540511764	576.6281582593874	3578.323118043489	965.9468809589948	603.8749099114382	3596.1332233816747	1029.324008383708	599.7136092062741	3561.6056300613345	1048.990385353961
553	9.216666666666669	444.2025555947496	3745.692030811001	704.1779396936198	825.479592437134	3738.347448108269	682.0594886883457	1212.4452232677068	3755.835211150613	714.9011086420647	1302.9270030026241	3690.9106516171314	684.4533853072927	1270.9242916039825	3683.981372989316	602.8138249628304	1269.4798451338397	3802.2680911940515	757.6833349863662	452.1146996647204	3644.4940724155217	869.9557715339774	837.8833811146905	3651.434413329299	875.9101213089966	1238.5862131087808	3717.5512887454433	879.0715302486102	1293.4383084821786	3549.09446067291	798.8228766847552	1259.1586797123027	3531.396472947655	835.6573458703017	1261.0582491176845	3730.3952279016794	866.8599618931055	-132.38917106470288	3696.957833416921	838.2193197856781	-402.07564066295464	3633.1743315406948	804.3405718841219	-251.0425505831056	3477.5943981978517	735.1864535573594	-59.28134256478064	3735.4354926877413	671.9216434813459	121.13064349853555	3588.026678981656	538.4937522614013	1.2460652981930507	3447.165900680607	715.6572122709103	-68.81570624901887	3393.1845255770113	825.8439364425647	-55.76944883351838	3392.4991801134233	829.6079767673846	-6.316609029665033	3388.5387431248623	819.462781900368	-35.96969303973683	3667.1377510959364	992.4479158439483	228.26906414766594	3566.2164887210483	973.4661537489319	475.7703440274571	3590.123377412346	1014.1106690112892	573.9948411519174	3578.2876050735313	964.0127573443399	593.1439788688863	3568.649857362212	999.3413253428179	593.9023335160407	3542.0123697671256	1032.9170640890154
554	9.233333333333333	441.2454163585011	3734.6156043273368	695.1873759430347	818.8735633605622	3723.0997308487467	673.2610883048991	1213.5341545559468	3757.5516675435847	715.7715985896383	1298.2848554628272	3688.70099119143	680.5966365273766	1275.2610596335426	3691.3679761851545	611.1725919638894	1273.7740146199144	3805.320762214156	759.1895742894139	451.1808377695352	3648.635141127161	873.2804029031612	837.8495437215822	3660.535069542008	879.4898732210535	1237.6807803378586	3715.2790442687633	876.9367224773459	1294.789665851556	3556.134052094157	804.8460663189082	1259.770529221956	3534.9005474595433	838.409511390221	1264.1585490639638	3731.023557143426	866.5624815878143	-133.03367218801614	3688.129932053407	830.4126685149826	-401.7740250364217	3631.759169097887	799.6435887521726	-251.5887152642686	3480.856786475153	738.134947205365	-59.06654243212855	3733.4305236936416	669.5758833409133	122.6463194113077	3589.1379575804017	538.9660202932894	0.7136960341915379	3453.161360429097	717.4394315429051	-65.10145474397301	3404.521451092663	828.6983609696948	-50.40829114260711	3399.465185349555	830.2678531728466	-6.152581481219014	3389.402183731987	815.335205387412	-36.101010091991824	3661.3492502577046	983.9963932745366	228.76108650574054	3580.1493250473573	983.385016125822	472.3792258750855	3580.1084797285357	1003.6224256947739	572.3968868182139	3577.8121098523525	962.8691625737184	586.6311578923205	3548.821577486333	978.7537202512978	590.7148254875211	3534.1815363988503	1028.6472228142707
555	9.25	443.89558686512817	3746.4784830119447	704.6626013852724	819.3712803500355	3722.629008921582	676.3293407404819	1215.7716872583958	3758.815345759597	716.596859157504	1304.8960588720888	3701.222628211813	689.270269198826	1275.422125674303	3689.59979915506	609.7370740059125	1276.4075486230108	3808.647691600609	761.3185140330911	452.2302229032946	3649.7439168273795	873.9093483646377	843.7678940354235	3674.866630080314	890.264493404268	1238.7329166152679	3717.900628014367	879.2060688825499	1292.2732238543979	3551.8324811041243	800.7538372454154	1259.651874826077	3535.0808699022177	838.3496793728063	1267.8453113891965	3736.5593185539974	870.711890880363	-132.5884384731842	3694.1944386785312	836.0645440715035	-403.05525688073624	3646.365055291097	811.3079796760128	-251.21262071781035	3480.9538569867545	736.7842115538677	-59.88334248976271	3723.758465320761	660.1876940787182	124.89387037546952	3592.9830091871104	540.6621348814654	1.6242913074145633	3461.5238766604903	719.0612403293845	-61.45883826034412	3416.9640262715743	833.3122291696976	-48.552618853678936	3409.4002106194503	833.4358515127547	-4.8997150935113805	3395.5926481903657	816.6349175292896	-36.39609533512443	3660.349125719547	980.9837300478359	230.32524156789913	3586.016511757201	984.0550321916934	475.0501957314791	3588.6785436464334	1012.9038931199407	572.1118025373294	3572.622214827456	958.17384184478	589.8946110740548	3549.244779867124	978.8439913672244	595.3444552380705	3548.247794680893	1044.7841369475611
